Coordinates
version=1
nRows=22
nColumns=24
inDegrees=yes

Units are S.I. units (second, meters, Newtons, ...)
Angles are in degrees.

endheader
time	pelvis_tilt	pelvis_list	pelvis_rotation	pelvis_tx	pelvis_ty	pelvis_tz	hip_flexion_r	hip_adduction_r	hip_rotation_r	knee_angle_r	ankle_angle_r	subtalar_angle_r	mtp_angle_r	hip_flexion_l	hip_adduction_l	hip_rotation_l	knee_angle_l	ankle_angle_l	subtalar_angle_l	mtp_angle_l	lumbar_extension	lumbar_bending	lumbar_rotation
      1.38300000	      2.59582098	      8.97935336	     -6.85978299	      0.21632527	      1.02083702	      0.25859702	     11.46336458	     -9.39956160	      3.42011812	    -65.71825864	      5.15614277	    -14.14692920	     -5.21089377	      6.18800726	     13.77688951	     -1.04379727	    -10.92918695	     -0.62751902	    -19.58587055	      1.94879738	     -4.13282742	    -11.34474342	      7.62703584
      1.38716667	      2.58083792	      8.85982594	     -6.72372331	      0.22143390	      1.02157194	      0.25837995	     11.97118741	     -9.21094889	      3.40123595	    -65.30860192	      5.40674714	    -14.16285680	     -5.33057333	      5.66880513	     13.71591367	     -0.79026377	    -10.59021892	     -0.55421205	    -19.60778846	      1.85787273	     -4.18193690	    -11.21764472	      7.37033456
      1.39133333	      2.55264007	      8.72974038	     -6.57799906	      0.22650680	      1.02225198	      0.25817092	     12.48030906	     -9.00596510	      3.37854582	    -64.84958035	      5.65408042	    -14.17767450	     -5.40511456	      5.17389000	     13.63435261	     -0.55109772	    -10.27140169	     -0.47174352	    -19.57682938	      1.79725613	     -4.23055713	    -11.07447899	      7.17292007
      1.39550000	      2.55729650	      8.61847612	     -6.43256324	      0.23160939	      1.02293804	      0.25795233	     12.94161786	     -8.83801819	      3.34017497	    -64.34165891	      5.86925839	    -14.18642648	     -5.50691684	      4.62812623	     13.57876349	     -0.28966097	     -9.91887538	     -0.39009020	    -19.61085309	      1.70954116	     -4.29222852	    -10.96168726	      6.85835608
      1.39966667	      2.52798720	      8.49396196	     -6.27612903	      0.23668887	      1.02355280	      0.25774925	     13.42433944	     -8.64636130	      3.30019947	    -63.78504834	      6.10374257	    -14.19914144	     -5.54776624	      4.13571598	     13.49324029	     -0.07514353	     -9.60004727	     -0.31518316	    -19.54433651	      1.67217465	     -4.32402561	    -10.82412843	      6.70893779
      1.40383333	      2.53380770	      8.38215996	     -6.11718233	      0.24173896	      1.02416789	      0.25752868	     13.86116439	     -8.48093669	      3.25199508	    -63.18485826	      6.26677314	    -14.21352855	     -5.63404552	      3.59117748	     13.43155828	      0.21921811	     -9.24854770	     -0.21927059	    -19.59137977	      1.59193057	     -4.41436210	    -10.71440683	      6.32848011
      1.40800000	      2.51701992	      8.26530759	     -5.94773581	      0.24679849	      1.02473562	      0.25731622	     14.30318382	     -8.30786552	      3.19537813	    -62.53357508	      6.44680417	    -14.24019466	     -5.72123674	      3.07751723	     13.35327383	      0.48059834	     -8.90917603	     -0.14910570	    -19.59625202	      1.50681574	     -4.46301029	    -10.59310747	      6.04470178
      1.41216667	      2.48861865	      8.15836011	     -5.77629468	      0.25184556	      1.02522154	      0.25711533	     14.75171389	     -8.14775428	      3.13632377	    -61.85002457	      6.61430584	    -14.26799157	     -5.80067355	      2.58376203	     13.27888751	      0.73327625	     -8.58047697	     -0.06606987	    -19.58486235	      1.42766051	     -4.50219700	    -10.48253444	      5.77310725
      1.41633333	      2.47762232	      8.05238380	     -5.60059953	      0.25687426	      1.02569890	      0.25691284	     15.16684748	     -7.99467757	      3.07097769	    -61.12174121	      6.76917273	    -14.30686781	     -5.88119507	      2.07279253	     13.20366352	      0.98617843	     -8.24992063	      0.01106248	    -19.57262444	      1.34680931	     -4.56544022	    -10.37366592	      5.48515550
      1.42050000	      2.43804335	      7.95166646	     -5.41829183	      0.26190070	      1.02609716	      0.25672529	     15.60033797	     -7.84446946	      3.00568162	    -60.35455326	      6.93870012	    -14.33727399	     -5.92092135	      1.60722887	     13.12251543	      1.20174185	     -7.94487627	      0.07603995	    -19.50010348	      1.30678803	     -4.59142177	    -10.27187718	      5.30957196
      1.42466667	      2.44973805	      7.86264646	     -5.24329749	      0.26690225	      1.02650597	      0.25653364	     15.97284098	     -7.72030203	      2.93742900	    -59.55392638	      7.03584319	    -14.40491131	     -6.00731983	      1.06889178	     13.06316190	      1.48671859	     -7.60017236	      0.16631497	    -19.53533944	      1.21944947	     -4.68720219	    -10.18628268	      4.89947164
      1.42883333	      2.41637078	      7.75961350	     -5.05246734	      0.27191727	      1.02684197	      0.25634002	     16.36882225	     -7.57884365	      2.85791449	    -58.70058153	      7.13788798	    -14.46141101	     -6.08654124	      0.59272571	     12.97617993	      1.73912386	     -7.28670542	      0.25335799	    -19.52242173	      1.13908992	     -4.72159085	    -10.07730442	      4.61606536
      1.43300000	      2.38693125	      7.66613583	     -4.85879362	      0.27691174	      1.02713640	      0.25616049	     16.74940213	     -7.45148848	      2.77839588	    -57.81207940	      7.26458309	    -14.48702440	     -6.12922760	      0.12721426	     12.89217999	      1.95526831	     -6.99402765	      0.31765322	    -19.45153777	      1.09623843	     -4.76423408	     -9.98247497	      4.42536908
      1.43716667	      2.36283646	      7.59711795	     -4.67951221	      0.28188589	      1.02736213	      0.25600841	     17.12830870	     -7.34993137	      2.71878918	    -56.90868596	      7.32782596	    -14.56660431	     -6.21849377	     -0.35802000	     12.83637658	      2.22667389	     -6.66438416	      0.40136351	    -19.47593649	      1.00628305	     -4.82320250	     -9.92230535	      4.02038471
      1.44133333	      2.34574234	      7.51933602	     -4.48950662	      0.28687841	      1.02758402	      0.25583698	     17.47340465	     -7.25213019	      2.63443867	    -55.95202473	      7.39238552	    -14.60679154	     -6.29182694	     -0.83983053	     12.76607392	      2.45983152	     -6.36114565	      0.49705147	    -19.45432843	      0.93213143	     -4.87021110	     -9.84176209	      3.75223441
      1.44550000	      2.31799049	      7.45190952	     -4.30313524	      0.29185068	      1.02773243	      0.25569278	     17.82346749	     -7.16290201	      2.56384027	    -54.97021455	      7.45299944	    -14.64394360	     -6.36557858	     -1.30415397	     12.70121643	      2.69366386	     -6.06227662	      0.57846440	    -19.43245113	      0.85677433	     -4.91704119	     -9.77897762	      3.46342427
      1.44966667	      2.24984677	      7.37772035	     -4.11108008	      0.29683232	      1.02780367	      0.25554975	     18.19688044	     -7.06620093	      2.49198457	    -53.94400560	      7.52084159	    -14.64382780	     -6.40098771	     -1.70972976	     12.61995197	      2.88690357	     -5.79376317	      0.65368066	    -19.35673230	      0.82184519	     -4.91192964	     -9.70240985	      3.29759580
      1.45383333	      2.24953410	      7.32837241	     -3.93531484	      0.30178793	      1.02790394	      0.25542884	     18.49583905	     -7.00460927	      2.43150582	    -52.89896660	      7.52776292	    -14.70181959	     -6.47381167	     -2.20625326	     12.57186830	      3.13338176	     -5.48226395	      0.75349638	    -19.36361594	      0.74731014	     -4.99353140	     -9.66768387	      2.91248558
      1.45800000	      2.17145241	      7.27457505	     -3.75287976	      0.30677046	      1.02785064	      0.25530618	     18.86209032	     -6.93848393	      2.36551186	    -51.82087889	      7.57412376	    -14.67008650	     -6.50780769	     -2.59455737	     12.50695828	      3.31485869	     -5.21995528	      0.83623431	    -19.29942314	      0.71235660	     -4.96960111	     -9.61317249	      2.75308471
      1.46216667	      2.15460969	      7.23246330	     -3.58338838	      0.31173808	      1.02785062	      0.25520584	     19.15099179	     -6.88970701	      2.30955503	    -50.71076957	      7.55600879	    -14.70527841	     -6.57246783	     -3.06627957	     12.45917626	      3.54430653	     -4.92033290	      0.94344963	    -19.30123130	      0.64302729	     -5.02498090	     -9.58145757	      2.40138508
      1.46633333	      2.11493628	      7.18498989	     -3.41382702	      0.31670804	      1.02778681	      0.25511334	     19.44653740	     -6.83659051	      2.25255840	    -49.56351666	      7.55266053	    -14.68642329	     -6.63281658	     -3.50313140	     12.39978182	      3.74929133	     -4.63956779	      1.03467373	    -19.27579028	      0.57372066	     -5.05425469	     -9.54093106	      2.14993376
      1.47050000	      2.04827885	      7.15933544	     -3.25155574	      0.32169264	      1.02762030	      0.25503223	     19.76806532	     -6.80961709	      2.20197562	    -48.40367417	      7.54232412	    -14.64930127	     -6.68440554	     -3.90351317	     12.36036310	      3.93341777	     -4.37006977	      1.13660913	    -19.24583782	      0.51055699	     -5.04296005	     -9.52171032	      1.92193753
